<?xml version="1.0" encoding="utf-8"?>
<!DOCTYPE svg PUBLIC "-//W3C//DTD SVG 1.1//EN" "http://www.w3.org/Graphics/SVG/1.1/DTD/svg11.dtd">
<svg version="1.1" id="Capa_1" xmlns="http://www.w3.org/2000/svg" xmlns:xlink="http://www.w3.org/1999/xlink" x="0px" y="0px"
	 viewBox="-149.4 12.9 13 24" enable-background="new -149.4 12.9 13 24" xml:space="preserve">
<g>
	<path d="M-136.9,12.9l-3.1,0c-3.5,0-5.8,2.3-5.8,5.9v2.7h-3.1c-0.3,0-0.5,0.2-0.5,0.5V26c0,0.3,0.2,0.5,0.5,0.5h3.1
		v10c0,0.3,0.2,0.5,0.5,0.5h4.1c0.3,0,0.5-0.2,0.5-0.5v-10h3.7c0.3,0,0.5-0.2,0.5-0.5l0-3.9c0-0.1-0.1-0.3-0.1-0.3
		c-0.1-0.1-0.2-0.1-0.3-0.1h-3.7v-2.3c0-1.1,0.3-1.7,1.7-1.7l2.1,0c0.3,0,0.5-0.2,0.5-0.5v-3.7C-136.5,13.2-136.7,12.9-136.9,12.9z"
		/>
</g>
</svg>
