<?xml version="1.0" encoding="utf-8"?>
<!DOCTYPE svg PUBLIC "-//W3C//DTD SVG 1.1//EN" "http://www.w3.org/Graphics/SVG/1.1/DTD/svg11.dtd">
<svg version="1.1" id="Capa_1" xmlns="http://www.w3.org/2000/svg" xmlns:xlink="http://www.w3.org/1999/xlink" x="0px" y="0px"
	 viewBox="231.4 13.5 18.4 24" enable-background="new 231.4 13.5 18.4 24" xml:space="preserve">
<g>
	<path d="M242.6,27.5c-0.8-0.5-1.9-0.5-2.7-0.5H237v6h2.7c1,0,2.2,0.1,3.1-0.5c0.8-0.5,1.2-1.6,1.2-2.5
		C244,29,243.4,28,242.6,27.5z M241.5,22.4c0.6-0.5,1-1.4,1-2.2c0-0.9-0.4-1.7-1.2-2.2c-0.8-0.5-2.2-0.3-3.1-0.3H237V23h1.7
		C239.6,23,240.7,23,241.5,22.4z M241.3,37.5h-9.9v-24h10.9c3.1,0,6.1,2,6.1,5.5c0,2.7-1.5,4.6-3.5,5.2v0.1c2.9,0.6,4.9,2.2,4.9,5.9
		C249.8,33.7,247.4,37.5,241.3,37.5z"/>
</g>
</svg>
